# xmcd
#
# Track frame offsets:
#	187
#	16317
#	38362
#	63025
#	86642
#	107740
#	124612
#	147820
#	172725
#	193152
#
# Disc length: 2949 seconds
#
# Revision: 1
# Processed by: cddbd v1.5PL3 Copyright (c) Steve Scherf et al.
# Submitted via: CDex 1.50Beta5
#
DISCID=730b830a
DTITLE=のっこ - ベランダの岸辺
DYEAR=1998
DGENRE=Pop
TTITLE0=ベルベット・イースター
TTITLE1=雨と太陽
TTITLE2=わすれな草
TTITLE3=Calas
TTITLE4=猫の耳たぶ
TTITLE5=星のおまつり
TTITLE6=CoFFee
TTITLE7=アメージング
TTITLE8=someday
TTITLE9=TRAVESSIA
EXTD=
EXTT0=
EXTT1=
EXTT2=
EXTT3=
EXTT4=
EXTT5=
EXTT6=
EXTT7=
EXTT8=
EXTT9=
PLAYORDER=
